<svg xmlns="http://www.w3.org/2000/svg" viewBox="0 0 150 150"><g transform="translate(9 3)"><path d="M1.522-5H124.512a6.53,6.53,0,0,1,6.522,6.522V75.129a6.53,6.53,0,0,1-6.522,6.522H1.522A6.53,6.53,0,0,1-5,75.129V1.522A6.53,6.53,0,0,1,1.522-5ZM121.716,4.317H4.317V72.334h117.4Z" transform="translate(3 65.348)" fill="#09523c"/><path d="M77.041,69.661A4.659,4.659,0,0,1,72.382,65V36.85a30.532,30.532,0,1,0-61.065,0V65A4.659,4.659,0,1,1,2,65V36.85a39.85,39.85,0,1,1,79.7,0V65A4.659,4.659,0,0,1,77.041,69.661Z" transform="translate(24.153 0)" fill="#09523c"/></g></svg>