<?xml version="1.0" encoding="UTF-8"?>
<svg xmlns="http://www.w3.org/2000/svg" viewBox="0 0 1000 166.37">
  <path d="M0,0H33.46V128.59c0,.61,.57,1.48,1.71,2.62,1.14,1.14,2.08,1.71,2.84,1.71h13.66l.23,33.46h-16.39c-1.97,0-4.48-.46-7.51-1.37-13.2-3.94-21.93-12.29-26.17-25.03-1.22-3.64-1.82-6.45-1.82-8.42V0Z" style="fill: #0bbdc6;"/>
  <path d="M147.93,159.31c-9.1,4.4-18.29,6.6-27.54,6.6-16.69,0-30.95-5.98-42.79-17.93-11.84-11.96-17.75-26.31-17.75-43.06s5.95-31.26,17.87-43.06c11.91-11.8,26.29-17.71,43.13-17.71,12.59,0,24.16,3.68,34.71,11.04,10.54,7.36,17.94,16.95,22.19,28.79,2.42,6.83,3.64,12.52,3.64,17.07v64.86h-33.46v-6.6Zm-54.62-54.39c0,7.44,2.69,13.85,8.08,19.23,5.38,5.39,11.8,8.08,19.23,8.08s13.84-2.69,19.23-8.08c5.38-5.38,8.08-11.8,8.08-19.23s-2.66-13.62-7.97-19c-5.31-5.38-11.69-8.08-19.12-8.08s-13.88,2.62-19.34,7.85-8.19,11.65-8.19,19.23Z" style="fill: #0bbdc6;"/>
  <path d="M248.29,44.15c11.98,0,22.87,3.26,32.66,9.77,9.79,6.51,17.03,15.22,21.73,26.12,3.19,7.42,4.78,13.86,4.78,19.31v66.56h-33.46V101.22c0-1.51-.31-2.87-.91-4.09-1.52-5.6-4.52-10.21-8.99-13.85-4.48-3.63-9.67-5.45-15.59-5.45s-10.85,1.74-15.25,5.22c-4.4,3.48-7.44,8.02-9.1,13.62-.31,1.06-.49,1.63-.57,1.7-.08,.08-.27,1.4-.57,3.97v63.56h-33.46V100.49c0-1.66,.23-3.86,.68-6.59,2.28-14.08,8.99-25.9,20.14-35.44,11.15-9.54,23.78-14.31,37.89-14.31Z" style="fill: #0bbdc6;"/>
  <path d="M315.43,104.69c0-14.72,4.78-27.73,14.34-39.03,9.56-11.3,21.54-18.24,35.96-20.82,3.64-.6,7.13-.91,10.47-.91,11.07,.15,21.39,3.04,30.95,8.65,9.56,5.61,16.99,13.2,22.3,22.76,.3,.31,1.21,1.97,2.73,5.01,0-.76,.46,.46,1.37,3.64,.46,1.06,.83,2.28,1.14,3.64v.68h-36.41c-6.83-7.13-14.11-10.7-21.85-10.7s-14.22,2.65-19.46,7.93c-5.23,5.29-7.85,11.71-7.85,19.26s2.65,13.75,7.97,19.04c5.31,5.29,11.68,7.93,19.12,7.93,8.34,0,15.7-3.49,22.08-10.47h36.41v.68c-.46,1.37-1.06,3.19-1.82,5.46-1.06,3.04-3.64,7.51-7.74,13.43-1.37,1.97-4.32,5.23-8.88,9.79-.91,.76-1.44,1.22-1.59,1.36-11.84,8.96-24.66,13.43-38.46,13.43-16.69,0-30.99-5.92-42.9-17.75-11.91-11.84-17.87-26.17-17.87-43.01Z" style="fill: #0bbdc6;"/>
  <path d="M442.87,104.92c0-16.69,5.92-31.03,17.75-43.01,11.84-11.98,26.09-17.98,42.79-17.98,23.06,0,40.74,10.44,53.03,31.33,.61,.91,1.74,2.95,3.41,6.13,2.12,4.54,4.55,9.91,7.28,16.12,0,.15,.08,.38,.23,.68v.23c0,.15-.08,.23-.23,.23l-73.51,31.1c2.12,1.37,5.38,2.05,9.79,2.05,8.34,0,15.7-3.49,22.07-10.47h36.64v.23c-.61,3.34-2.2,7.28-4.78,11.83-12.29,21.39-30.42,32.09-54.39,32.09-16.54,0-30.69-5.95-42.44-17.87-11.76-11.91-17.64-26.13-17.64-42.67Zm60.99-27.31c-11.84,0-20.11,5.16-24.81,15.48-1.52,3.34-2.28,5.84-2.28,7.51h.23l42.33-17.75c-.15-.45-.99-1.14-2.5-2.05-4.1-2.12-8.42-3.19-12.97-3.19Z" style="fill: #0bbdc6;"/>
  <path d="M634.27,44.15c11.98,0,22.87,3.26,32.66,9.77,9.79,6.51,17.03,15.22,21.74,26.12,3.18,7.42,4.78,13.86,4.78,19.31v66.56h-33.46V101.22c0-1.51-.3-2.87-.91-4.09-1.52-5.6-4.52-10.21-8.99-13.85-4.48-3.63-9.67-5.45-15.59-5.45s-10.85,1.74-15.25,5.22c-4.4,3.48-7.43,8.02-9.1,13.62-.31,1.06-.49,1.63-.57,1.7-.08,.08-.27,1.4-.57,3.97v63.56h-33.45V100.49c0-1.66,.23-3.86,.68-6.59,2.28-14.08,8.99-25.9,20.14-35.44,11.15-9.54,23.78-14.31,37.89-14.31Z" style="fill: #00d400;"/>
  <path d="M701.64,104.92c0-16.69,5.92-30.95,17.75-42.79,11.84-11.83,26.02-17.75,42.56-17.75s31.25,5.92,43.24,17.75c11.98,11.83,17.98,26.17,17.98,43.01s-5.96,30.8-17.86,42.79c-11.91,11.99-26.21,17.98-42.9,17.98s-31.18-5.95-43.01-17.87c-11.83-11.91-17.75-26.29-17.75-43.13Zm33.45,.11c0,7.56,2.65,13.98,7.97,19.27,5.31,5.29,11.76,7.93,19.35,7.93s13.84-2.68,19.23-8.04c5.39-5.36,8.08-11.75,8.08-19.15s-2.73-13.75-8.19-19.04c-5.46-5.29-11.91-7.93-19.35-7.93s-13.81,2.65-19.12,7.93c-5.31,5.29-7.97,11.63-7.97,19.04Z" style="fill: #00d400;"/>
  <path d="M831.36,43.92h33.45V109.24c.3,2.58,.68,4.55,1.14,5.92,.76,4.25,2.5,8.04,5.23,11.38,3.19,4.1,6.75,6.15,10.7,6.15,4.25,0,7.97-2.27,11.15-6.81,2.42-3.63,4.17-7.87,5.23-12.71l.46-3.63V43.92h33.45l.46,66.97c.15,.45,.23,.98,.23,1.59,2.58,13.47,8.11,20.2,16.61,20.2,3.94,0,7.51-2.12,10.7-6.37,2.58-3.49,4.32-7.43,5.23-11.83,.3-.91,.6-2.43,.91-4.55V43.92h33.46l.23,61.79c0,15.66-4.4,29.42-13.2,41.27-9.71,12.92-22.08,19.38-37.1,19.38-12.14,0-23.52-4.93-34.14-14.79h-.23c-10.62,9.86-21.85,14.79-33.68,14.79s-22.15-4.33-31.41-13c-8.5-8.21-14.19-18.24-17.07-30.1-.3-1.67-.68-3.64-1.14-5.92-.46-2.28-.68-4.48-.68-6.61V43.92Z" style="fill: #00d400;"/>
</svg>