<svg xmlns="http://www.w3.org/2000/svg" viewBox="0 0 150 150"><path d="M108.992,57.515l29.16,29.16a.38.38,0,0,1,0,.562L87.237,138.152a.38.38,0,0,1-.562,0l-29.16-29.16a.38.38,0,0,1,0-.562L108.43,57.515A.447.447,0,0,1,108.992,57.515Zm26.449,2.942a14.367,14.367,0,0,0,20.333,0l.1-.1,15.936,15.936a3.512,3.512,0,0,1,0,4.992L81.253,171.809a3.512,3.512,0,0,1-4.992,0L60.325,155.873h0A14.377,14.377,0,1,0,39.992,135.54h0l-16.1-16.1a3.512,3.512,0,0,1,0-4.992l90.522-90.555a3.512,3.512,0,0,1,4.992,0L135.54,40.025l-.1.1A14.367,14.367,0,0,0,135.441,60.457ZM112,54.539a4.61,4.61,0,0,0-6.546,0L54.539,105.454a4.61,4.61,0,0,0,0,6.546l29.16,29.16a4.639,4.639,0,0,0,6.546,0l50.915-50.915a4.61,4.61,0,0,0,0-6.546Z" transform="translate(-22.85 -22.85)" fill="#09523c"/></svg>