<svg xmlns="http://www.w3.org/2000/svg" viewBox="0 0 149.623 150"><g transform="translate(1 2)"><path d="M143.936,72.081a4.688,4.688,0,0,1-4.687-4.689V49.824a30.445,30.445,0,0,0-30.375-30.446H38.75A30.41,30.41,0,0,0,8.375,49.824V67.392a4.687,4.687,0,1,1-9.375,0V49.824A39.787,39.787,0,0,1,38.75,10h70.124a39.832,39.832,0,0,1,39.75,39.824V67.392A4.688,4.688,0,0,1,143.936,72.081Z" transform="translate(0 75.919)" fill="#09523c"/><path d="M34.857-5A39.857,39.857,0,1,1-5,34.857,39.9,39.9,0,0,1,34.857-5Zm0,70.335A30.479,30.479,0,1,0,4.378,34.857,30.513,30.513,0,0,0,34.857,65.335Z" transform="translate(39.487 3)" fill="#09523c"/></g></svg>