<svg xmlns="http://www.w3.org/2000/svg" width="42.314" height="50" viewBox="0 0 42.314 50"><path d="M45.639,179.141a2.985,2.985,0,0,0-2.194.9,2.951,2.951,0,0,0-.9,2.164v12.923a3.078,3.078,0,0,0,3.1,3.1,2.939,2.939,0,0,0,2.179-.9,3.013,3.013,0,0,0,.886-2.194V182.206a3.078,3.078,0,0,0-3.066-3.065Z" transform="translate(-42.544 -162.947)"/><path d="M143.387,4.6,145.52.662a.4.4,0,0,0-.15-.6.416.416,0,0,0-.6.18l-2.164,3.968a15.074,15.074,0,0,0-12.082,0L128.361.241a.417.417,0,0,0-.6-.18.4.4,0,0,0-.15.6L129.744,4.6a13.177,13.177,0,0,0-5.169,4.614,11.652,11.652,0,0,0-1.924,6.477h27.8a11.655,11.655,0,0,0-1.924-6.477A13.232,13.232,0,0,0,143.387,4.6ZM131.05,10.323a1.127,1.127,0,0,1-.827.346,1.075,1.075,0,0,1-.811-.346,1.2,1.2,0,0,1,0-1.652,1.079,1.079,0,0,1,.811-.345,1.168,1.168,0,0,1,.827,2Zm12.667,0a1.078,1.078,0,0,1-.811.346,1.172,1.172,0,0,1,0-2.344,1.08,1.08,0,0,1,.811.345,1.2,1.2,0,0,1,0,1.652Z" transform="translate(-115.408 0)"/><path d="M123.971,205.465a3.282,3.282,0,0,0,3.305,3.305H129.5l.03,6.823a2.987,2.987,0,0,0,.9,2.194,2.951,2.951,0,0,0,2.164.9,3.078,3.078,0,0,0,3.1-3.1v-6.822h4.147v6.822a3.1,3.1,0,1,0,6.19,0v-6.822h2.254a3.282,3.282,0,0,0,3.276-3.305V185.45H123.971Z" transform="translate(-116.608 -168.689)"/><path d="M445.441,179.141a2.978,2.978,0,0,0-2.164.887,2.939,2.939,0,0,0-.9,2.179v12.923a2.985,2.985,0,0,0,.9,2.194,2.952,2.952,0,0,0,2.164.9,3.078,3.078,0,0,0,3.1-3.1V182.206a2.938,2.938,0,0,0-.9-2.179A3.014,3.014,0,0,0,445.441,179.141Z" transform="translate(-406.222 -162.947)"/></svg>