<svg xmlns="http://www.w3.org/2000/svg" width="41.017" height="50" viewBox="0 0 41.017 50"><path d="M59.621,156.437c-7.443-.043-13.6-15.233-13.6-22.969,0-12.637,9.481-15.4,13.135-15.4a15.117,15.117,0,0,1,4.956,1.219,11.08,11.08,0,0,0,2.83.811,8.808,8.808,0,0,0,2.03-.658,16.274,16.274,0,0,1,6.119-1.479h.014c1.793,0,7.228.393,10.5,5.3l.765,1.15-1.1.831c-1.574,1.187-4.445,3.353-4.445,7.643a8.626,8.626,0,0,0,4.814,7.975c.69.415,1.4.843,1.4,1.778,0,.611-4.876,13.727-11.956,13.727a9.617,9.617,0,0,1-4.037-.98,8.189,8.189,0,0,0-3.594-.865,9.245,9.245,0,0,0-2.846.77,13.941,13.941,0,0,1-4.936,1.151Z" transform="translate(-46.022 -106.437)"/><path d="M264.549,0c.184,6.649-4.571,11.262-9.32,10.972C254.446,5.666,259.978,0,264.549,0Z" transform="translate(-234.728)"/></svg>