<?xml version="1.0" encoding="utf-8"?><svg version="1.1" xmlns="http://www.w3.org/2000/svg" xmlns:xlink="http://www.w3.org/1999/xlink" x="0px" y="0px" viewBox="0 0 19.9 20" enable-background="new 0 0 19.9 20" xml:space="preserve"><path fill="#FFFFFF" d="M11.8,1.9v9.8c0,1-0.8,1.9-1.9,1.9s-1.9-0.8-1.9-1.9V1.9c0-1,0.8-1.9,1.9-1.9S11.8,0.8,11.8,1.9z"/><path fill="#FFFFFF" d="M19.9,10.1c0,5.5-4.5,9.9-10,9.9C4.4,20,0,15.5,0,10c0-2.6,1-5.1,2.8-6.9c0.3-0.2,0.6-0.3,0.9-0.3 C4.5,2.8,5,3.3,5.1,4C5,4.4,4.9,4.7,4.6,5c-1.4,1.3-2.2,3.2-2.2,5.1c0,4,3.2,7.3,7.3,7.3c0,0,0.1,0,0.1,0c4,0,7.3-3.2,7.4-7.2 c0,0,0-0.1,0-0.1c0-1.9-0.7-3.7-2.1-5.1c-0.2-0.3-0.3-0.6-0.3-0.9c0-0.7,0.6-1.3,1.3-1.3c0.3,0,0.7,0.1,0.9,0.3 C18.9,4.9,19.9,7.5,19.9,10.1z"/></svg>