<?xml version="1.0" encoding="utf-8"?>
<svg version="1.1" xmlns="http://www.w3.org/2000/svg" xmlns:xlink="http://www.w3.org/1999/xlink" x="0px" y="0px" viewBox="0 0 20 20" enable-background="new 0 0 20 20" xml:space="preserve">
<path fill="#FFFFFF" d="M14.7,13.4L11.3,10l3.4-3.4c0.4-0.4,0.4-1,0-1.3c-0.4-0.4-1-0.4-1.3,0L10,8.7L6.6,5.3c-0.4-0.4-1-0.4-1.3,0 c-0.4,0.4-0.4,1,0,1.3L8.7,10l-3.4,3.4c-0.4,0.4-0.4,1,0,1.3c0.4,0.4,1,0.4,1.3,0l3.4-3.4l3.4,3.4c0.4,0.4,1,0.4,1.3,0 C15.1,14.4,15.1,13.8,14.7,13.4z"/>
<path fill="#FFFFFF" d="M10,0C4.5,0,0,4.5,0,10s4.5,10,10,10s10-4.5,10-10S15.5,0,10,0z M10,19c-5,0-9-4-9-9s4-9,9-9s9,4,9,9 S15,19,10,19z"/>
</svg>
