<?xml version="1.0" encoding="utf-8"?><svg version="1.1" xmlns="http://www.w3.org/2000/svg" xmlns:xlink="http://www.w3.org/1999/xlink" x="0px" y="0px" viewBox="0 0 20 20" enable-background="new 0 0 20 20" xml:space="preserve"><path fill-rule="evenodd" clip-rule="evenodd" fill="#FFFFFF" d="M2.2,14.4c0-1.2,1-2.2,2.2-2.2l0,0h3.3c1.2,0,2.2,1,2.2,2.2l0,0 v3.3C10,19,9,20,7.8,20l0,0H4.4c-1.2,0-2.2-1-2.2-2.2V14.4z M7.8,14.4H4.4v3.3h3.3L7.8,14.4z"/><path fill-rule="evenodd" clip-rule="evenodd" fill="#FFFFFF" d="M0,2.2C0,1,1,0,2.2,0l0,0h5.6C9,0,10,1,10,2.2l0,0v5.6 C10,9,9,10,7.8,10l0,0H2.2C1,10,0,9,0,7.8l0,0V2.2z M7.8,2.2H2.2v5.6h5.6V2.2z"/><path fill-rule="evenodd" clip-rule="evenodd" fill="#FFFFFF" d="M12.2,14.4c0-1.2,1-2.2,2.2-2.2l0,0h3.3c1.2,0,2.2,1,2.2,2.2l0,0 v3.3c0,1.2-1,2.2-2.2,2.2l0,0h-3.3c-1.2,0-2.2-1-2.2-2.2V14.4z M17.8,14.4h-3.3v3.3h3.3L17.8,14.4z"/><path fill-rule="evenodd" clip-rule="evenodd" fill="#FFFFFF" d="M12.2,4.4c0-1.2,1-2.2,2.2-2.2l0,0h3.3c1.2,0,2.2,1,2.2,2.2l0,0 v3.3C20,9,19,10,17.8,10l0,0h-3.3c-1.2,0-2.2-1-2.2-2.2V4.4z M17.8,4.4h-3.3v3.3h3.3L17.8,4.4z"/></svg>