<?xml version="1.0" encoding="utf-8"?><svg version="1.1" xmlns="http://www.w3.org/2000/svg" xmlns:xlink="http://www.w3.org/1999/xlink" x="0px" y="0px" viewBox="0 0 20 20" enable-background="new 0 0 20 20" xml:space="preserve"><path fill="#FFFFFF" d="M10,0C4.5,0,0,4.5,0,10s4.5,10,10,10s10-4.5,10-10S15.5,0,10,0z M10,18c-4.4,0-8-3.6-8-8s3.6-8,8-8 s8,3.6,8,8S14.4,18,10,18z"/><path fill="#FFFFFF" d="M10.8,9V7c0.6,0.1,1.1,0.6,1.1,1.2h2c-0.1-1.7-1.4-3-3.1-3.1V3.7H8.9v1.4c-0.5,0-3,0.7-3,2.9 c0,2,1.8,2.5,3,2.7v2.2c-0.7-0.2-1.1-0.8-1.2-1.5h-2c0.1,1.7,1.4,3.2,3.2,3.4v1.4h1.9v-1.4c1.7-0.1,3.1-1.4,3.2-3.1 C14,9.7,12.3,9.2,10.8,9z M8.9,8.7c-1.3,0-1.3-1.5,0-1.7V8.7z M10.8,12.9V11C12.4,11.1,12.6,12.7,10.8,12.9z"/></svg>