<?xml version="1.0" encoding="utf-8"?><svg version="1.1" xmlns="http://www.w3.org/2000/svg" xmlns:xlink="http://www.w3.org/1999/xlink" x="0px" y="0px" viewBox="0 0 20.2 20" enable-background="new 0 0 20.2 20" xml:space="preserve"><path fill="#FFFFFF" d="M10.1,4.1c-1.6,0-3,1.3-3,3c0,1.6,1.3,3,3,3c1.6,0,3-1.3,3-3v0C13.1,5.5,11.7,4.1,10.1,4.1z M10.1,8.5 c-0.8,0-1.4-0.6-1.4-1.4s0.6-1.4,1.4-1.4c0.8,0,1.4,0.6,1.4,1.4C11.5,7.9,10.9,8.5,10.1,8.5z"/><path fill="#FFFFFF" d="M20.1,18.7l-2.8-5c-0.1-0.2-0.3-0.4-0.6-0.4c-0.2-0.1-0.4,0-0.6,0.1c-0.4,0.2-0.6,0.8-0.4,1.2l2.1,3.6H2.4 l2.1-3.6c0.2-0.4,0.1-1-0.4-1.2c-0.2-0.1-0.4-0.2-0.6-0.1c-0.2,0.1-0.4,0.2-0.6,0.4l-2.8,5C0,19,0,19.3,0.1,19.6 C0.3,19.8,0.6,20,0.9,20h18.4c0.3,0,0.6-0.2,0.8-0.4C20.3,19.3,20.3,19,20.1,18.7z"/><path fill="#FFFFFF" d="M10.1,2.1c2.7,0,5,2.2,5,5c0,2.6-2.9,5.9-5,7.8c-2-1.9-5-5.2-5-7.8C5.2,4.4,7.4,2.2,10.1,2.1 M10.1,0 C6.2,0,3,3.2,3,7.1c0,5,7.1,10.6,7.1,10.6s7.1-5.6,7.1-10.6C17.2,3.2,14,0,10.1,0z"/></svg>