<?xml version="1.0" encoding="utf-8"?><svg version="1.1" xmlns="http://www.w3.org/2000/svg" xmlns:xlink="http://www.w3.org/1999/xlink" x="0px" y="0px" viewBox="0 0 16.2 20" enable-background="new 0 0 16.2 20" xml:space="preserve"><g transform="translate(-3.5 -0.5)"><path fill="#FFFFFF" d="M11.6,11.5c3,0,5.5-2.5,5.5-5.5s-2.5-5.5-5.5-5.5S6.1,3,6.1,6c0,0,0,0,0,0C6.1,9,8.5,11.5,11.6,11.5 C11.6,11.5,11.6,11.5,11.6,11.5z M11.6,2.4c2,0,3.5,1.6,3.6,3.6c0,2-1.6,3.6-3.6,3.6S8,8,8,6C8,4,9.6,2.5,11.6,2.4z"/><path fill="#FFFFFF" d="M19.1,13.5l-3.2-1.9c-0.1-0.1-0.1-0.1-0.2-0.1c-0.5-0.2-1.1,0-1.3,0.5c-0.1,0.2-0.1,0.5,0,0.7 c0.1,0.2,0.3,0.5,0.5,0.5l2.8,1.7v2.1c0,0.9-0.7,1.6-1.6,1.6c0,0,0,0,0,0h-9c-0.9,0-1.6-0.7-1.6-1.6c0,0,0,0,0,0v-2l2.8-1.7 c0.4-0.3,0.5-0.7,0.3-1.2c-0.1-0.2-0.3-0.4-0.5-0.5c-0.3-0.1-0.5-0.1-0.8,0.1L4,13.6c-0.3,0.1-0.5,0.4-0.5,0.8v2.6 c0,2,1.6,3.5,3.6,3.6h9.1c2,0,3.5-1.6,3.6-3.6v-2.6C19.7,14,19.5,13.7,19.1,13.5z"/></g></svg>