<svg xmlns="http://www.w3.org/2000/svg" width="155.227" height="155.226" viewBox="0 0 155.227 155.226"><path d="M47.957,0H14.686A14.7,14.7,0,0,0,0,14.686V47.957A14.7,14.7,0,0,0,14.686,62.643H47.957A14.7,14.7,0,0,0,62.643,47.957V14.686A14.7,14.7,0,0,0,47.957,0Zm4.924,47.957a4.93,4.93,0,0,1-4.924,4.924H14.686a4.93,4.93,0,0,1-4.924-4.924V14.686a4.93,4.93,0,0,1,4.924-4.924H47.957a4.93,4.93,0,0,1,4.924,4.924v33.27Z" fill="#777"/><path d="M47.957,303.068H14.686A14.7,14.7,0,0,0,0,317.754v33.271a14.7,14.7,0,0,0,14.686,14.686H47.957a14.7,14.7,0,0,0,14.686-14.686V317.754A14.7,14.7,0,0,0,47.957,303.068Zm4.924,47.957a4.93,4.93,0,0,1-4.924,4.924H14.686a4.93,4.93,0,0,1-4.924-4.924V317.754a4.93,4.93,0,0,1,4.924-4.924H47.957a4.93,4.93,0,0,1,4.924,4.924v33.271Z" transform="translate(0 -210.611)" fill="#777"/><path d="M416.57,390.151H399.935a9.8,9.8,0,0,0-9.784,9.784V416.57a9.8,9.8,0,0,0,9.784,9.784H416.57a9.8,9.8,0,0,0,9.784-9.784V399.935A9.8,9.8,0,0,0,416.57,390.151Zm.009,26.44c-.031.006-1.338,0-16.666-.021l.021-16.657,16.657.021Z" transform="translate(-271.127 -271.127)" fill="#777"/><path d="M265.036,390.151H248.4a9.8,9.8,0,0,0-9.784,9.784V416.57a9.8,9.8,0,0,0,9.784,9.784h16.635a9.8,9.8,0,0,0,9.784-9.784V399.935A9.8,9.8,0,0,0,265.036,390.151Zm.009,26.44c-.031.006-1.338,0-16.666-.021l.021-16.657,16.657.021Z" transform="translate(-165.822 -271.127)" fill="#777"/><path d="M416.57,238.616H399.935a9.8,9.8,0,0,0-9.784,9.784v16.635a9.8,9.8,0,0,0,9.784,9.784H416.57a9.8,9.8,0,0,0,9.784-9.784V248.4A9.8,9.8,0,0,0,416.57,238.616Zm.009,26.44-16.666-.021.021-16.657,16.657.021Z" transform="translate(-271.127 -165.821)" fill="#777"/><path d="M317.753,62.643h33.271A14.7,14.7,0,0,0,365.71,47.957V14.686A14.7,14.7,0,0,0,351.024,0H317.753a14.7,14.7,0,0,0-14.686,14.686V47.957A14.7,14.7,0,0,0,317.753,62.643ZM312.83,14.686a4.93,4.93,0,0,1,4.924-4.924h33.27a4.93,4.93,0,0,1,4.924,4.924V47.957a4.93,4.93,0,0,1-4.924,4.924H317.753a4.93,4.93,0,0,1-4.924-4.924V14.686Z" transform="translate(-210.61)" fill="#777"/><path d="M87.936,77.974h-4.6a5.358,5.358,0,0,0-5.358,5.358v4.6a5.358,5.358,0,0,0,5.358,5.358h4.6a5.358,5.358,0,0,0,5.358-5.358v-4.6A5.358,5.358,0,0,0,87.936,77.974Z" transform="translate(-54.186 -54.186)" fill="#777"/><path d="M87.936,381.041h-4.6a5.358,5.358,0,0,0-5.358,5.358V391a5.358,5.358,0,0,0,5.358,5.358h4.6A5.358,5.358,0,0,0,93.294,391v-4.6A5.358,5.358,0,0,0,87.936,381.041Z" transform="translate(-54.186 -264.796)" fill="#777"/><path d="M386.4,93.294H391a5.358,5.358,0,0,0,5.358-5.358v-4.6A5.358,5.358,0,0,0,391,77.974h-4.6a5.358,5.358,0,0,0-5.358,5.358v4.6A5.358,5.358,0,0,0,386.4,93.294Z" transform="translate(-264.797 -54.186)" fill="#777"/><path d="M243.5,36.616a4.881,4.881,0,0,0,4.881-4.881V5.294a4.881,4.881,0,0,0-9.762,0v26.44A4.881,4.881,0,0,0,243.5,36.616Z" transform="translate(-165.822 -0.287)" fill="#777"/><path d="M243.5,185.2h5.358v9.693a4.881,4.881,0,0,0,9.762,0V180.314a4.881,4.881,0,0,0-4.881-4.881h-5.358V164.207a4.881,4.881,0,1,0-9.762,0v16.107A4.881,4.881,0,0,0,243.5,185.2Z" transform="translate(-165.822 -110.72)" fill="#777"/><path d="M24.075,248.378a4.881,4.881,0,1,0,0-9.762H5.3a4.881,4.881,0,1,0,0,9.762Z" transform="translate(-0.288 -165.821)" fill="#777"/><path d="M140.044,248.378a4.881,4.881,0,1,0,0-9.762H125.585a4.881,4.881,0,1,0,0,9.762Z" transform="translate(-83.881 -165.821)" fill="#777"/><path d="M269.938,287.945a4.881,4.881,0,0,0-4.881,4.881v6.511H243.5a4.881,4.881,0,0,0,0,9.762h26.44a4.881,4.881,0,0,0,4.881-4.881V292.826A4.881,4.881,0,0,0,269.938,287.945Z" transform="translate(-165.822 -200.101)" fill="#777"/></svg>