<?xml version="1.0" encoding="utf-8"?><svg version="1.1" xmlns="http://www.w3.org/2000/svg" xmlns:xlink="http://www.w3.org/1999/xlink" x="0px" y="0px" viewBox="0 0 20.3 20" enable-background="new 0 0 20.3 20" xml:space="preserve"><g transform="translate(-0.3 -0.4)"><path fill="#FFFFFF" d="M6.5,10.5c0,2.2,1.8,4,4,4s4-1.8,4-4s-1.8-4-4-4l0,0C8.3,6.5,6.5,8.3,6.5,10.5z M10.5,8.1 c1.4,0,2.5,1.1,2.5,2.5S11.9,13,10.5,13S8,11.9,8,10.5l0,0C8,9.2,9.1,8.1,10.5,8.1C10.5,8.1,10.5,8.1,10.5,8.1z"/><path fill="#FFFFFF" d="M16,15.3l-2.3-1c-0.2-0.1-0.4-0.1-0.6,0c-0.2,0.1-0.4,0.3-0.5,0.5c-0.1,0.2-0.1,0.4,0,0.6 c0.1,0.2,0.3,0.4,0.5,0.5l1.8,0.7v1.1c0,0.6-0.5,1.2-1.2,1.2c0,0,0,0,0,0H7.3c-0.6,0-1.2-0.5-1.2-1.2c0,0,0,0,0,0v-1.1l1.8-0.7H8 c0.2-0.1,0.4-0.3,0.5-0.5c0.1-0.2,0.1-0.4,0-0.6c-0.1-0.2-0.3-0.4-0.5-0.5c-0.2-0.1-0.4-0.1-0.6,0l-2.3,1c-0.3,0.1-0.5,0.4-0.5,0.8 v1.6c0,1.5,1.2,2.7,2.7,2.7h6.5c1.5,0,2.7-1.2,2.7-2.7V16C16.5,15.7,16.3,15.4,16,15.3z"/><path fill="#FFFFFF" d="M5.6,7.2C7.5,7.2,9,5.6,9,3.8c0-1.9-1.5-3.3-3.4-3.4c-1.8,0-3.4,1.5-3.4,3.3c0,0,0,0,0,0 C2.2,5.6,3.7,7.1,5.6,7.2C5.6,7.2,5.6,7.2,5.6,7.2z M5.6,2c1,0,1.8,0.8,1.8,1.8c0,0,0,0,0,0c0,1-0.8,1.8-1.8,1.8 c-1,0-1.8-0.8-1.8-1.8c0,0,0-0.1,0-0.1C3.8,2.8,4.6,2,5.6,2C5.6,2,5.6,2,5.6,2L5.6,2z"/><path fill="#FFFFFF" d="M5.8,11.8C5.8,11.3,5.5,11,5,11H3.1C2.5,11,2,10.5,1.9,9.9V9.2l1.6-0.6c0.4-0.2,0.6-0.6,0.5-1 C3.8,7.2,3.3,7,2.9,7.1L0.8,7.9C0.5,8,0.3,8.4,0.3,8.7v1.2c0,1.5,1.2,2.7,2.7,2.7h2C5.4,12.6,5.8,12.2,5.8,11.8z"/><path fill="#FFFFFF" d="M15.4,7.2c1.9,0,3.4-1.5,3.4-3.4c0-1.9-1.6-3.4-3.4-3.3C13.5,0.5,12,2,12,3.8C12,5.6,13.5,7.2,15.4,7.2z  M15.4,2c1,0,1.8,0.8,1.8,1.8c0,0,0,0,0,0c0,1-0.8,1.8-1.8,1.8c0,0,0,0-0.1,0c-1,0-1.8-0.8-1.8-1.8C13.6,2.7,14.4,1.9,15.4,2 L15.4,2z"/><path fill="#FFFFFF" d="M20.2,7.9l-2.1-0.8c-0.4-0.1-0.9,0.1-1,0.5l0,0C17,7.7,17,7.9,17,8.1c0.1,0.2,0.3,0.4,0.5,0.5l1.6,0.6v0.6 c0,0.6-0.5,1.1-1.1,1.1c0,0,0,0-0.1,0h-2c-0.4,0-0.8,0.4-0.8,0.8c0,0.4,0.4,0.8,0.8,0.8h1.9c0.7,0,1.5-0.3,2-0.8 c0.5-0.5,0.8-1.2,0.8-1.9V8.5C20.7,8.3,20.5,8.1,20.2,7.9z"/></g></svg>