<?xml version="1.0" encoding="utf-8"?>
<svg version="1.1" xmlns="http://www.w3.org/2000/svg" xmlns:xlink="http://www.w3.org/1999/xlink" x="0px" y="0px" viewBox="0 0 40 40" style="enable-background:new 0 0 40 40;" xml:space="preserve">
	<path fill="#FFFFFF" d="M5.6,17c1.2,0,2.3-0.7,2.8-1.8c2-4.9,6.8-8,11.9-8c2.8,0,5.7,0.9,7.9,2.7l-1.7,0.3c-0.7,0.1-1.2,0.8-1.1,1.5 c0.1,0.4,0.4,0.8,0.8,1l9.4,4.2c0.7,0.3,1.4,0,1.7-0.7c0.1-0.2,0.1-0.3,0.1-0.5l0.1-10.3c0-0.7-0.6-1.3-1.3-1.3 c-0.4,0-0.9,0.2-1.1,0.6l-1.3,1.9c-7.5-7.6-19.6-7.5-27,0c-1.7,1.7-3,3.7-4,6c-0.7,1.6,0.1,3.3,1.6,4C4.8,16.9,5.2,17,5.6,17 L5.6,17z" />
	<path fill="#FFFFFF" d="M36.9,24.6c-0.9-1.4-2.8-1.8-4.2-0.9c-0.5,0.3-0.9,0.8-1.1,1.3c-2,4.9-6.8,8-11.9,8c-2.8,0-5.7-0.9-7.9-2.7 l1.7-0.3c0.7-0.1,1.2-0.8,1.1-1.5c-0.1-0.4-0.4-0.8-0.8-1l-9.4-4.2c-0.7-0.3-1.4,0-1.7,0.7c-0.1,0.2-0.1,0.3-0.1,0.5v10.3 c0,0.7,0.6,1.3,1.3,1.3c0.4,0,0.9-0.2,1.1-0.6l1.3-1.9c7.5,7.4,19.6,7.3,27-0.2c1.7-1.7,3-3.7,4-6C37.6,26.6,37.5,25.4,36.9,24.6z" />
</svg>
