<?xml version="1.0" encoding="utf-8"?><svg version="1.1" xmlns="http://www.w3.org/2000/svg" xmlns:xlink="http://www.w3.org/1999/xlink" x="0px" y="0px" viewBox="0 0 16.9 20" enable-background="new 0 0 16.9 20" xml:space="preserve"><g transform="translate(-2.8 -0.4)"><path fill="#FFFFFF" d="M6.6,17.5c-2.1,0-3.8-1.7-3.8-3.8v-1.4c0-0.3,0.1-0.5,0.4-0.6L6,9.9c0.4-0.2,0.8,0,1,0.4c0,0,0,0,0,0 c0.1,0.3,0,0.7-0.3,1l-2.4,1.5v0.8c0,1.3,1,2.3,2.3,2.3c0,0,0,0,0,0c0.4,0,0.8,0.3,0.8,0.7c0,0,0,0,0,0.1 C7.4,17.1,7.1,17.4,6.6,17.5z"/><path fill="#FFFFFF" d="M9.7,9.6C7.2,9.6,5.1,7.5,5.1,5c0-2.5,2.1-4.6,4.6-4.6c2.5,0,4.6,2.1,4.6,4.6C14.3,7.5,12.3,9.6,9.7,9.6 C9.7,9.6,9.7,9.6,9.7,9.6z M9.7,1.9C8,1.9,6.6,3.3,6.6,5c0,1.7,1.4,3,3.1,3c1.7,0,3-1.4,3-3C12.8,3.3,11.4,1.9,9.7,1.9z"/><path fill="#FFFFFF" d="M14.3,20.4c-3,0-5.4-2.4-5.4-5.4s2.4-5.4,5.4-5.4s5.4,2.4,5.4,5.4C19.7,18,17.3,20.4,14.3,20.4 C14.3,20.4,14.3,20.4,14.3,20.4z M14.3,11.1c-2.1,0-3.8,1.7-3.8,3.8s1.7,3.8,3.8,3.8c2.1,0,3.8-1.7,3.8-3.8c0,0,0,0,0,0 C18.1,12.9,16.4,11.1,14.3,11.1z"/><path fill="#FFFFFF" d="M16.6,14.2h-1.5v-1.5h-1.5v1.5H12v1.5h1.5v1.5h1.5v-1.5h1.5V14.2z"/></g></svg>