<?xml version="1.0" encoding="utf-8"?>
<svg version="1.1" xmlns="http://www.w3.org/2000/svg" xmlns:xlink="http://www.w3.org/1999/xlink" x="0px" y="0px" viewBox="0 0 40 40" style="enable-background:new 0 0 40 40;" xml:space="preserve">
	<path fill="#FFFFFF" d="M37.9,38c-1.4,1.4-3.7,1.4-5,0l0,0l-6.3-6.3c-7.7,5-18,2.7-23-5S0.9,8.6,8.6,3.6s18-2.7,23,5 c3.6,5.5,3.6,12.5,0,18l6.3,6.3C39.4,34.3,39.4,36.6,37.9,38L37.9,38z M17.7,5.9c-6.5,0-11.8,5.3-11.8,11.8s5.3,11.8,11.8,11.8 s11.8-5.3,11.8-11.8S24.3,5.9,17.7,5.9L17.7,5.9z"/>
</svg>
