<?xml version="1.0" encoding="utf-8"?><svg version="1.1" xmlns="http://www.w3.org/2000/svg" xmlns:xlink="http://www.w3.org/1999/xlink" x="0px" y="0px" viewBox="0 0 21.6 20" enable-background="new 0 0 21.6 20" xml:space="preserve"><g transform="translate(-0.008 -1.2)"><circle fill="#FFFFFF" cx="10.2" cy="7" r="1"/><circle fill="#FFFFFF" cx="13.7" cy="7" r="1"/><circle fill="#FFFFFF" cx="17.2" cy="7" r="1"/><g transform="translate(0.008 1.2)"><path fill="#FFFFFF" d="M15.8,0h-4.3C9.8,0,8.2,0.8,7,2C5.9,3.3,5.5,5,5.8,6.7c0.5,2.9,3,5,5.9,5h1.1l3.1,2.7 c0.1,0.1,0.3,0.2,0.5,0.2c0.1,0,0.2,0,0.3-0.1c0.3-0.1,0.5-0.5,0.5-0.8v-2.2c2.5-0.7,4.2-3,4.2-5.6C21.6,2.6,19,0,15.8,0z  M11.5,1.8h4.2c2,0.1,3.6,1.5,3.9,3.4c0.2,1.1-0.1,2.2-0.7,3.1c-0.6,0.9-1.6,1.5-2.7,1.6c-0.4,0.1-0.8,0.4-0.7,0.9v1l-1.9-1.7 c-0.2-0.1-0.5-0.2-0.7-0.2h-1.2C9.6,9.9,7.8,8.4,7.5,6.3C7.3,5.2,7.7,4,8.5,3.1C9.2,2.3,10.3,1.8,11.5,1.8z"/><path fill="#FFFFFF" d="M13.7,13.9c-0.2,0-0.5,0.1-0.6,0.3c-0.8,0.8-1.8,1.2-2.9,1.2H8.6c-0.2,0-0.4,0.1-0.5,0.2l-2,1.7v-1 c0-0.5-0.4-0.8-0.8-0.9c-0.5,0-1-0.2-1.5-0.5c-1.3-0.9-2.1-2.4-2-4c0.1-1.5,1-2.7,2.4-3.3c0,0,0.1,0,0.1-0.1c0,0,0,0,0,0 c0.2-0.1,0.4-0.3,0.4-0.5c0.1-0.2,0.1-0.5-0.1-0.7C4.5,6.2,4.3,6,4.1,6C3.9,5.9,3.6,5.9,3.4,6C1.8,6.8,0.7,8.2,0.2,9.8 c-0.8,3.1,1,6.2,4,7.1v2.2c0,0.4,0.2,0.7,0.5,0.8C4.9,20,5,20,5.1,20l0,0c0.2,0,0.4-0.1,0.5-0.2l3.1-2.7h1.4 c1.6,0,3.1-0.6,4.2-1.8c0.3-0.3,0.3-0.9,0-1.2c0,0,0,0,0,0C14.2,14,13.9,14,13.7,13.9z"/></g></g></svg>