<?xml version="1.0" encoding="utf-8"?><svg version="1.1" xmlns="http://www.w3.org/2000/svg" xmlns:xlink="http://www.w3.org/1999/xlink" x="0px" y="0px" viewBox="0 0 16.7 20" enable-background="new 0 0 16.7 20" xml:space="preserve"><g transform="translate(-2)"><path fill="#FFFFFF" d="M10.3,0C5.3,5,2,7.1,2,11.7c-0.1,4.6,3.6,8.4,8.2,8.4s8.4-3.6,8.4-8.2c0-0.1,0-0.1,0-0.2 C18.7,7.1,15.3,5,10.3,0z M10.3,17.5c-3.1,0-5.6-2.5-5.7-5.6c0-0.1,0-0.2,0-0.3C4.7,8,7.8,6,10.3,3.5C12.8,6,16,8,16,11.7 c0.2,3.1-2.2,5.7-5.2,5.8C10.6,17.5,10.5,17.5,10.3,17.5z"/><path fill="#FFFFFF" d="M11.6,6.6c0.9,1.5,1.3,3.1,1.2,4.8c0,1.7-0.4,3.5-1,5.1c1.7-1.1,2.8-3,2.9-5.1C14.6,9.5,13.3,7.9,11.6,6.6z"/></g></svg>